<svg xmlns="http://www.w3.org/2000/svg" width="120" height="120" viewBox="0 0 120 120" fill="none" role="img" aria-label="Panelmate"><title>Panelmate</title><rect width="120" height="120" fill="#E8E6DF"/><rect x="20" y="8" width="28" height="104" rx="6" fill="#121418"/><rect x="27" y="14" width="14" height="5" rx="2.5" fill="#E8E6DF"/><rect x="27" y="101" width="14" height="5" rx="2.5" fill="#E8E6DF"/><circle cx="34" cy="84" r="7" fill="#E8E6DF"/><circle cx="34" cy="84" r="3.2" fill="#CDF24B"/><line x1="25" y1="28" x2="31" y2="28" stroke="#E8E6DF" stroke-width="1.4" stroke-linecap="round"/><line x1="25" y1="34" x2="29" y2="34" stroke="#E8E6DF" stroke-width="1.4" stroke-linecap="round"/><line x1="25" y1="40" x2="31" y2="40" stroke="#E8E6DF" stroke-width="1.4" stroke-linecap="round"/><line x1="25" y1="46" x2="29" y2="46" stroke="#E8E6DF" stroke-width="1.4" stroke-linecap="round"/><line x1="25" y1="52" x2="31" y2="52" stroke="#E8E6DF" stroke-width="1.4" stroke-linecap="round"/><line x1="25" y1="58" x2="29" y2="58" stroke="#E8E6DF" stroke-width="1.4" stroke-linecap="round"/><line x1="25" y1="64" x2="31" y2="64" stroke="#E8E6DF" stroke-width="1.4" stroke-linecap="round"/><line x1="51.93" y1="20.20" x2="48.20" y2="14.87" stroke="#121418" stroke-width="2.2" stroke-linecap="round"/><line x1="57.05" y1="15.11" x2="55.30" y2="10.96" stroke="#121418" stroke-width="1.6" stroke-linecap="round"/><line x1="63.90" y1="13.06" x2="63.08" y2="8.64" stroke="#121418" stroke-width="1.6" stroke-linecap="round"/><line x1="71.02" y1="12.52" x2="71.16" y2="8.02" stroke="#121418" stroke-width="1.6" stroke-linecap="round"/><line x1="78.10" y1="13.50" x2="79.19" y2="9.13" stroke="#121418" stroke-width="1.6" stroke-linecap="round"/><line x1="83.93" y1="17.75" x2="86.81" y2="11.92" stroke="#121418" stroke-width="2.2" stroke-linecap="round"/><line x1="90.85" y1="19.78" x2="93.66" y2="16.26" stroke="#121418" stroke-width="1.6" stroke-linecap="round"/><line x1="95.94" y1="24.80" x2="99.43" y2="21.96" stroke="#121418" stroke-width="1.6" stroke-linecap="round"/><line x1="99.85" y1="30.79" x2="103.86" y2="28.75" stroke="#CDF24B" stroke-width="1.6" stroke-linecap="round"/><line x1="102.40" y1="37.47" x2="106.75" y2="36.33" stroke="#121418" stroke-width="1.6" stroke-linecap="round"/><line x1="101.47" y1="44.63" x2="107.96" y2="44.34" stroke="#121418" stroke-width="2.2" stroke-linecap="round"/><line x1="103.02" y1="51.67" x2="107.45" y2="52.44" stroke="#121418" stroke-width="1.6" stroke-linecap="round"/><line x1="101.06" y1="58.55" x2="105.23" y2="60.24" stroke="#121418" stroke-width="1.6" stroke-linecap="round"/><line x1="97.69" y1="64.85" x2="101.41" y2="67.39" stroke="#121418" stroke-width="1.6" stroke-linecap="round"/><line x1="93.06" y1="70.30" x2="96.16" y2="73.56" stroke="#121418" stroke-width="1.6" stroke-linecap="round"/><line x1="86.34" y1="72.93" x2="89.71" y2="78.49" stroke="#121418" stroke-width="2.2" stroke-linecap="round"/><line x1="80.91" y1="77.67" x2="82.37" y2="81.93" stroke="#121418" stroke-width="1.6" stroke-linecap="round"/><line x1="73.94" y1="79.27" x2="74.47" y2="83.74" stroke="#121418" stroke-width="1.6" stroke-linecap="round"/><line x1="66.79" y1="79.35" x2="66.36" y2="83.83" stroke="#121418" stroke-width="1.6" stroke-linecap="round"/><line x1="59.79" y1="77.91" x2="58.42" y2="82.19" stroke="#121418" stroke-width="1.6" stroke-linecap="round"/><line x1="54.25" y1="73.28" x2="51.00" y2="78.91" stroke="#121418" stroke-width="2.2" stroke-linecap="round"/><circle cx="70" cy="46" r="27.5" fill="#E8E6DF"/><circle cx="70" cy="46" r="25" fill="#CDF24B"/><circle cx="70" cy="46" r="18.5" stroke="#121418" stroke-width="1.4" stroke-opacity="0.55"/><line x1="91.00" y1="46.00" x2="93.50" y2="46.00" stroke="#121418" stroke-width="1.1" stroke-linecap="round" stroke-opacity="0.35"/><line x1="90.54" y1="41.63" x2="92.99" y2="41.11" stroke="#121418" stroke-width="1.1" stroke-linecap="round" stroke-opacity="0.35"/><line x1="89.18" y1="37.46" x2="91.47" y2="36.44" stroke="#121418" stroke-width="1.1" stroke-linecap="round" stroke-opacity="0.35"/><line x1="86.99" y1="33.66" x2="89.01" y2="32.19" stroke="#121418" stroke-width="1.1" stroke-linecap="round" stroke-opacity="0.35"/><line x1="84.05" y1="30.39" x2="85.72" y2="28.54" stroke="#121418" stroke-width="1.1" stroke-linecap="round" stroke-opacity="0.35"/><line x1="80.50" y1="27.81" x2="81.75" y2="25.65" stroke="#121418" stroke-width="1.1" stroke-linecap="round" stroke-opacity="0.35"/><line x1="76.49" y1="26.03" x2="77.26" y2="23.65" stroke="#121418" stroke-width="1.1" stroke-linecap="round" stroke-opacity="0.35"/><line x1="72.20" y1="25.12" x2="72.46" y2="22.63" stroke="#121418" stroke-width="1.1" stroke-linecap="round" stroke-opacity="0.35"/><line x1="67.80" y1="25.12" x2="67.54" y2="22.63" stroke="#121418" stroke-width="1.1" stroke-linecap="round" stroke-opacity="0.35"/><line x1="63.51" y1="26.03" x2="62.74" y2="23.65" stroke="#121418" stroke-width="1.1" stroke-linecap="round" stroke-opacity="0.35"/><line x1="59.50" y1="27.81" x2="58.25" y2="25.65" stroke="#121418" stroke-width="1.1" stroke-linecap="round" stroke-opacity="0.35"/><line x1="55.95" y1="30.39" x2="54.28" y2="28.54" stroke="#121418" stroke-width="1.1" stroke-linecap="round" stroke-opacity="0.35"/><line x1="53.01" y1="33.66" x2="50.99" y2="32.19" stroke="#121418" stroke-width="1.1" stroke-linecap="round" stroke-opacity="0.35"/><line x1="50.82" y1="37.46" x2="48.53" y2="36.44" stroke="#121418" stroke-width="1.1" stroke-linecap="round" stroke-opacity="0.35"/><line x1="49.46" y1="41.63" x2="47.01" y2="41.11" stroke="#121418" stroke-width="1.1" stroke-linecap="round" stroke-opacity="0.35"/><line x1="49.00" y1="46.00" x2="46.50" y2="46.00" stroke="#121418" stroke-width="1.1" stroke-linecap="round" stroke-opacity="0.35"/><line x1="49.46" y1="50.37" x2="47.01" y2="50.89" stroke="#121418" stroke-width="1.1" stroke-linecap="round" stroke-opacity="0.35"/><line x1="50.82" y1="54.54" x2="48.53" y2="55.56" stroke="#121418" stroke-width="1.1" stroke-linecap="round" stroke-opacity="0.35"/><line x1="53.01" y1="58.34" x2="50.99" y2="59.81" stroke="#121418" stroke-width="1.1" stroke-linecap="round" stroke-opacity="0.35"/><line x1="55.95" y1="61.61" x2="54.28" y2="63.46" stroke="#121418" stroke-width="1.1" stroke-linecap="round" stroke-opacity="0.35"/><line x1="59.50" y1="64.19" x2="58.25" y2="66.35" stroke="#121418" stroke-width="1.1" stroke-linecap="round" stroke-opacity="0.35"/><line x1="63.51" y1="65.97" x2="62.74" y2="68.35" stroke="#121418" stroke-width="1.1" stroke-linecap="round" stroke-opacity="0.35"/><line x1="67.80" y1="66.88" x2="67.54" y2="69.37" stroke="#121418" stroke-width="1.1" stroke-linecap="round" stroke-opacity="0.35"/><line x1="72.20" y1="66.88" x2="72.46" y2="69.37" stroke="#121418" stroke-width="1.1" stroke-linecap="round" stroke-opacity="0.35"/><line x1="76.49" y1="65.97" x2="77.26" y2="68.35" stroke="#121418" stroke-width="1.1" stroke-linecap="round" stroke-opacity="0.35"/><line x1="80.50" y1="64.19" x2="81.75" y2="66.35" stroke="#121418" stroke-width="1.1" stroke-linecap="round" stroke-opacity="0.35"/><line x1="84.05" y1="61.61" x2="85.72" y2="63.46" stroke="#121418" stroke-width="1.1" stroke-linecap="round" stroke-opacity="0.35"/><line x1="86.99" y1="58.34" x2="89.01" y2="59.81" stroke="#121418" stroke-width="1.1" stroke-linecap="round" stroke-opacity="0.35"/><line x1="89.18" y1="54.54" x2="91.47" y2="55.56" stroke="#121418" stroke-width="1.1" stroke-linecap="round" stroke-opacity="0.35"/><line x1="90.54" y1="50.37" x2="92.99" y2="50.89" stroke="#121418" stroke-width="1.1" stroke-linecap="round" stroke-opacity="0.35"/><line x1="74.60" y1="42.14" x2="86.09" y2="32.50" stroke="#121418" stroke-width="4.5" stroke-linecap="round"/></svg>
